<svg width="26" height="26" viewBox="0 0 26 26" fill="none" xmlns="http://www.w3.org/2000/svg">
<rect width="26" height="26" rx="4" fill="#8AC389" fill-opacity="0.1"/>
<rect x="0.5" y="0.5" width="25" height="25" rx="3.5" stroke="#D6E8ED" stroke-opacity="0.5"/>
<path fill-rule="evenodd" clip-rule="evenodd" d="M13 6.66718C12.8399 6.66718 12.6864 6.72783 12.5732 6.8358C12.46 6.94376 12.3964 7.0902 12.3964 7.24289V13C12.3964 13.318 12.6666 13.5757 13 13.5757H19.0357C19.3691 13.5757 19.6393 13.318 19.6393 13C19.6393 12.1684 19.4675 11.3449 19.1339 10.5765C18.8002 9.8082 18.3112 9.11007 17.6947 8.52202C17.0782 7.93396 16.3462 7.46749 15.5407 7.14923C14.7352 6.83098 13.8719 6.66718 13 6.66718ZM13.6035 12.4243V7.85068C14.1097 7.90466 14.6064 8.02637 15.0788 8.21301C15.7378 8.4734 16.3367 8.85506 16.8411 9.3362C17.3455 9.81733 17.7456 10.3885 18.0186 11.0172C18.2143 11.4677 18.3419 11.9415 18.3985 12.4243H13.6035Z" fill="#8AC389"/>
<path d="M10.7868 9.23194C11.1011 9.12598 11.2658 8.79707 11.1547 8.49729C11.0437 8.1975 10.6988 8.04038 10.3845 8.14634C8.04108 8.93639 6.36066 11.0681 6.36066 13.5757C6.36066 16.7553 9.06295 19.3328 12.3964 19.3328C15.0253 19.3328 17.2602 17.73 18.0885 15.4947C18.1996 15.1949 18.0349 14.866 17.7206 14.76C17.4063 14.6541 17.0615 14.8112 16.9504 15.111C16.2872 16.9006 14.4979 18.1814 12.3964 18.1814C9.72964 18.1814 7.5678 16.1194 7.5678 13.5757C7.5678 11.5713 8.91059 9.86448 10.7868 9.23194Z" fill="#8AC389"/>
</svg>
